Coordinates
version=1
nRows=21
nColumns=34
inDegrees=no

Units are S.I. units (second, meters, Newtons, ...)
If the header above contains a line with 'inDegrees', this indicates whether rotational values are in degrees (yes) or radians (no).

endheader
time	pelvis_tilt	pelvis_list	pelvis_rotation	pelvis_tx	pelvis_ty	pelvis_tz	hip_flexion_r	hip_adduction_r	hip_rotation_r	knee_angle_r	ankle_angle_r	subtalar_angle_r	mtp_angle_r	hip_flexion_l	hip_adduction_l	hip_rotation_l	knee_angle_l	ankle_angle_l	subtalar_angle_l	mtp_angle_l	lumbar_extension	lumbar_bending	lumbar_rotation	arm_flex_r	arm_add_r	arm_rot_r	elbow_flex_r	pro_sup_r	arm_flex_l	arm_add_l	arm_rot_l	elbow_flex_l	pro_sup_l
0.76	0.115215	0.0494305	0.0763802	0.841154	1.13945	-0.219593	-0.144518	-0.0576486	-0.177678	0.773827	-0.196068	-0.175705	-0.0491608	0.203019	0.0927702	-0.0649886	0.307143	-0.00814448	-0.140187	-0.0936404	-0.349561	-0.0537955	-0.0350861	-0.16366	-0.15783	-0.247173	0.774592	2.11436	-0.146387	-0.148405	-0.152542	0.743371	2.05909
0.77	0.115083	0.0508276	0.0684101	0.851508	1.14065	-0.2197	-0.113913	-0.0660566	-0.161707	0.828507	-0.228322	-0.196985	-0.0492811	0.192363	0.0930632	-0.0699988	0.305001	0.00144842	-0.138886	-0.0935618	-0.349575	-0.0581841	-0.0315593	-0.164577	-0.158342	-0.242369	0.772077	2.11429	-0.14793	-0.150065	-0.153079	0.747905	2.0624
0.78	0.115478	0.0520291	0.060581	0.861692	1.14189	-0.219781	-0.0838698	-0.0734112	-0.146118	0.880483	-0.25393	-0.216154	-0.0494013	0.180795	0.0931565	-0.0753073	0.301949	0.0105477	-0.136575	-0.0934833	-0.350294	-0.062097	-0.0288052	-0.164973	-0.159069	-0.237251	0.770226	2.11421	-0.149477	-0.152017	-0.153086	0.752803	2.06493
0.79	0.116413	0.0529101	0.053211	0.871714	1.14317	-0.219858	-0.0547599	-0.0795391	-0.131389	0.928935	-0.27221	-0.233393	-0.0495215	0.168393	0.0929973	-0.0805299	0.298196	0.01922	-0.133349	-0.0934048	-0.35171	-0.0653313	-0.0269991	-0.164941	-0.15988	-0.232167	0.768949	2.11413	-0.150915	-0.154205	-0.152624	0.757769	2.06658
0.8	0.117845	0.0533602	0.0465172	0.881588	1.14448	-0.219951	-0.0268071	-0.0843381	-0.117862	0.973201	-0.283019	-0.249043	-0.0496416	0.155231	0.0925278	-0.0853987	0.29382	0.0274959	-0.129295	-0.0933264	-0.353754	-0.0677108	-0.0261846	-0.164609	-0.160661	-0.227461	0.768184	2.11405	-0.152134	-0.156546	-0.151785	0.762545	2.06741
0.81	0.119676	0.0532876	0.0406051	0.891329	1.14583	-0.220072	-9.45168e-05	-0.0877915	-0.105724	1.01278	-0.286774	-0.263524	-0.0497617	0.141382	0.0917098	-0.0897767	0.288785	0.0353693	-0.124505	-0.0932481	-0.356303	-0.0691193	-0.0262839	-0.164125	-0.161324	-0.223438	0.767899	2.11397	-0.153035	-0.158944	-0.150683	0.766936	2.06752
0.82	0.121769	0.0526461	0.0354753	0.900956	1.14721	-0.22023	0.0254077	-0.0899631	-0.0950242	1.04735	-0.284384	-0.277259	-0.0498818	0.126924	0.0905342	-0.0936465	0.282979	0.0428062	-0.119071	-0.0931698	-0.359199	-0.0695104	-0.0271273	-0.163638	-0.161814	-0.220327	0.768085	2.11389	-0.153547	-0.161302	-0.149446	0.770832	2.06711
0.83	0.123972	0.0514379	0.0310494	0.910484	1.14863	-0.220426	0.049802	-0.090983	-0.085702	1.07672	-0.277107	-0.290597	-0.0500018	0.111938	0.0890258	-0.0970809	0.276254	0.0497593	-0.113081	-0.0930916	-0.36227	-0.0689073	-0.028494	-0.16328	-0.162114	-0.218269	0.768751	2.11381	-0.153625	-0.163531	-0.148197	0.77421	2.06635
0.84	0.126133	0.0497066	0.027203	0.919927	1.15007	-0.220661	0.0732166	-0.0910234	-0.0776325	1.10081	-0.266346	-0.303759	-0.0501219	0.0965081	0.0872366	-0.100205	0.268474	0.0561839	-0.106615	-0.0930134	-0.365356	-0.0673885	-0.0301545	-0.163152	-0.162236	-0.217307	0.769921	2.11373	-0.153254	-0.165561	-0.147046	0.777118	2.06544
0.85	0.128127	0.047523	0.0238006	0.929297	1.15151	-0.220932	0.0957637	-0.0902705	-0.0706648	1.11963	-0.253445	-0.316806	-0.0502419	0.0807192	0.085232	-0.103159	0.259553	0.0620528	-0.099733	-0.0929353	-0.368332	-0.0650667	-0.0319066	-0.163319	-0.162216	-0.217402	0.771617	2.11365	-0.152443	-0.167345	-0.146079	0.779654	2.06454
0.86	0.129869	0.0449696	0.0207237	0.938605	1.15294	-0.221233	0.117509	-0.0888982	-0.0646543	1.13327	-0.239529	-0.329639	-0.0503618	0.0646531	0.0830752	-0.106073	0.249479	0.0673674	-0.0924658	-0.0928572	-0.371117	-0.0620655	-0.0335987	-0.163804	-0.162102	-0.218448	0.773856	2.11357	-0.151223	-0.168866	-0.145348	0.781945	2.06382
0.87	0.131317	0.0421258	0.0178872	0.947858	1.15433	-0.221559	0.138455	-0.087051	-0.0594823	1.14181	-0.22541	-0.342018	-0.0504817	0.0483868	0.0808153	-0.10905	0.238321	0.0721627	-0.0848137	-0.0927792	-0.373682	-0.0585031	-0.0351384	-0.164595	-0.161949	-0.220294	0.776639	2.11349	-0.149639	-0.170141	-0.144863	0.784122	2.06341
0.88	0.132475	0.0390598	0.0152446	0.957062	1.15567	-0.221902	0.158546	-0.0848362	-0.0550602	1.14536	-0.211574	-0.353599	-0.0506016	0.0319903	0.0784832	-0.112161	0.22622	0.0765042	-0.0767522	-0.0927013	-0.376042	-0.0544837	-0.0364883	-0.165651	-0.161805	-0.222766	0.779944	2.11341	-0.147742	-0.171209	-0.144594	0.786311	2.06341
0.89	0.133371	0.0358273	0.0127814	0.96622	1.15695	-0.222257	0.177681	-0.0823267	-0.0513244	1.14405	-0.198236	-0.36399	-0.0507215	0.0155262	0.0760958	-0.11544	0.213369	0.0804788	-0.0682471	-0.0926235	-0.378241	-0.0500977	-0.037653	-0.166918	-0.161707	-0.225681	0.783728	2.11333	-0.145592	-0.172136	-0.144472	0.788621	2.06387
0.9	0.134048	0.0324775	0.0105023	0.975335	1.15815	-0.222617	0.195733	-0.0795695	-0.0482237	1.13797	-0.185421	-0.372807	-0.0508413	-0.000948567	0.0736649	-0.11889	0.199988	0.0841811	-0.0592766	-0.0925457	-0.380339	-0.0454281	-0.0386608	-0.168333	-0.16168	-0.228867	0.787921	2.11325	-0.143249	-0.173	-0.144395	0.79115	2.0648
0.91	0.134546	0.0290594	0.00841664	0.98441	1.15926	-0.222976	0.212579	-0.0765972	-0.0457054	1.12723	-0.173058	-0.379727	-0.0509611	-0.0173781	0.0712084	-0.122486	0.186296	0.0876994	-0.0498535	-0.092468	-0.382388	-0.0405585	-0.0395473	-0.169837	-0.161735	-0.232165	0.792432	2.11317	-0.140773	-0.173885	-0.144247	0.793981	2.06616
0.92	0.134884	0.0256277	0.00652559	0.993449	1.16026	-0.223326	0.228121	-0.0734385	-0.0437051	1.11192	-0.16105	-0.384531	-0.0510808	-0.0337019	0.0687591	-0.126174	0.172492	0.0911063	-0.0400423	-0.0923903	-0.384421	-0.0355799	-0.0403415	-0.171378	-0.161872	-0.235434	0.797157	2.11309	-0.138225	-0.174869	-0.14391	0.797185	2.06785
0.93	0.135056	0.0222439	0.0048143	1.00245	1.16115	-0.223659	0.242299	-0.0701245	-0.0421428	1.09215	-0.149317	-0.387125	-0.0512005	-0.049848	0.0663674	-0.12988	0.158747	0.0944541	-0.0299646	-0.0923128	-0.386435	-0.0305933	-0.0410581	-0.172915	-0.162081	-0.238556	0.801982	2.11301	-0.135656	-0.176019	-0.14328	0.800821	2.06976
0.94	0.135029	0.0189752	0.00325123	1.01143	1.16191	-0.223966	0.255103	-0.0666917	-0.0409257	1.06804	-0.137814	-0.38754	-0.0513202	-0.0657279	0.0640977	-0.133514	0.145201	0.0977794	-0.0197906	-0.0922353	-0.388392	-0.0257062	-0.0416956	-0.174418	-0.162348	-0.241436	0.806798	2.11293	-0.133111	-0.177381	-0.142288	0.804926	2.07175
0.95	0.134746	0.0158906	0.00179294	1.02038	1.16251	-0.224241	0.266564	-0.0631819	-0.0399585	1.03973	-0.12652	-0.3859	-0.0514399	-0.0812343	0.0620199	-0.136986	0.131972	0.101112	-0.00971768	-0.0921578	-0.390223	-0.0210262	-0.0422395	-0.175865	-0.162657	-0.244003	0.811503	2.11285	-0.130623	-0.178981	-0.140902	0.809513	2.0737
0.96	0.13413	0.013055	0.000392689	1.02931	1.16295	-0.224477	0.276751	-0.0596404	-0.0391574	1.00736	-0.115422	-0.382368	-0.0515595	-0.0962436	0.0601994	-0.140215	0.119169	0.104488	5.88954e-05	-0.0920805	-0.391837	-0.0166515	-0.0426691	-0.17724	-0.162989	-0.24621	0.816009	2.11277	-0.128213	-0.18082	-0.139133	0.814568	2.07552
